<svg xmlns="http://www.w3.org/2000/svg" width="400" height="209.444"><path d="M246.944 52.457c-8.95 1.747-8.936 2.447.139 6.843 12.44 6.027 20.698 11.917 21.568 15.382.266 1.059-.41 2.827-2.771 7.248-3.011 5.638-3.259 6.638-1.277 5.153 1.102-.825 5.953-9.692 5.953-10.881 0-4.129-6.8-9.766-20.308-16.834l-7.702-4.029 2.755-.762c11.814-3.265 35.063 4.285 34.264 11.128-.184 1.571.051 2.127 1.319 3.124 3.029 2.383 4.795-.054 2.24-3.091l-1.378-1.637 1.219-2.173c1.682-3 3.646-4.056 5.733-3.085l1.58.736-1.25.573c-1.614.74-1.576 1.132.314 3.248l1.565 1.751-2.068 5.822c-3.016 8.493-6.44 11.565-17.153 15.387-2.281.814-4.406 1.669-4.722 1.901-.316.231-2.356 1.102-4.532 1.934-4.473 1.712-9.319 4.497-12.831 7.375-4.01 3.286-2.825 4.209 1.436 1.118 5.929-4.303 10.433-6.68 17.507-9.239 16.208-5.865 18.324-7.639 22.268-18.672 2.478-6.933 1.597-6.534 10.79-4.897 4.375.778 8.1 1.27 8.278 1.092.693-.693-1.017-1.401-9.177-3.797-7.016-2.059-8.737-2.776-10.055-4.187-3.047-3.262-6.323-2.813-8.878 1.217l-1.554 2.45-3.303-2.474c-8.997-6.741-20.204-9.629-29.969-7.724m35.834 15.157c0 1.313-1.371.477-1.581-.964-.168-1.152-.08-1.226.694-.583.488.405.887 1.101.887 1.547m-176.248-.378c-8.069 2.029-20.758 11.885-27.363 21.254-1.223 1.734-2.544 3.158-2.937 3.165-1.2.02-3.552-1.792-4.639-3.576-.999-1.638-1.031-1.648-1.033-.339-.002.89.819 2.091 2.406 3.523l2.409 2.174-1.879 3.538c-4.698 8.847-5.87 15.84-3.537 21.112 4.35 9.835 14.676 8.551 27.252-3.387 8.835-8.388 12.601-11.203 10.313-7.711-2.372 3.619.364 3.59 2.965-.032 1.841-2.564 6.02-6.19 6.538-5.673.169.169-.811 1.887-2.178 3.817-5.3 7.486-5.889 11.566-1.668 11.566 2.482 0 5.539-2.23 11.821-8.62 5.753-5.852 9.006-8.263 9.918-7.351 1.035 1.035.738 1.73-1.301 3.051-2.347 1.52-4.299 5.14-4.066 7.539.265 2.728 1.7 2.511 5.888-.892 2.05-1.667 4.558-3.453 5.572-3.969l1.845-.939-.38 2.536c-.918 6.121 5.059 6.792 9.785 1.098.609-.734.798-.62 1.416.85 1.346 3.201 9.66 1.339 11.131-2.492.199-.52 1.091-.811 2.48-.811h2.169l-2.162 4.305c-3.997 7.96-4.619 11.673-2.177 12.98 1.296.693 3.716-.135 5.206-1.781 1.679-1.855 1.898-1.206 1.898 5.607v6.666h-15.59l.156-6.805.156-6.806 1.84-.176c4.753-.457 1.165-1.49-5.173-1.49-6.496 0-10.009 1.071-4.895 1.492l2.117.174.188 14.352c.218 16.708.192 16.903-2.273 17.141-4.36.421-1.088 1.285 4.863 1.285 5.952 0 9.223-.865 4.861-1.285l-1.805-.174v-16.041h15.555v16.111h-1.991c-1.345 0-1.915.225-1.759.695.168.503 2.04.694 6.806.694 4.765 0 6.638-.191 6.805-.694.157-.47-.415-.695-1.768-.695h-1.999l.148-15.694.147-15.695 1.806-.174c3.792-.365 2.103-1.77-2.13-1.77-2.3 0-3.858-.224-3.75-.539.293-.854 11.289-10.744 13.157-11.835l1.687-.985-.107 2.981c-.238 6.596 2.851 6.627 10.448.105 4.527-3.886 5.024-4.143 3.935-2.038-2.22 4.293-.03 4.647 2.666.432 1.776-2.777 5.608-6.376 6.179-5.804.137.137-.996 1.979-2.518 4.094-8.372 11.629-2.971 16.204 6.938 5.875 1.921-2.003 2.422-2.251 3.964-1.962 1.03.193 1.92.079 2.139-.274.691-1.118 1.444-.619 1.105.731-1.119 4.459 1.974 4.571 7.959.29 2.594-1.856 5.286-3.59 5.982-3.855 1.481-.563 2.321-1.661 1.267-1.658-.952.002-3.752 1.711-8.295 5.062-3.646 2.689-4.932 3.247-4.932 2.14 0-1.341 1.875-4.882 3.815-7.203 3.39-4.058 3.785-6.105.799-4.148-.767.502-1.895.782-2.508.622-2.078-.544-3.92.767-9.941 7.072-10.778 11.287-13.817 10.543-5.939-1.454 5.19-7.905 3.534-9.941-3.514-4.318-1.227.979-2.421 1.496-3.068 1.327-1.12-.293-2.726.792-8.521 5.759-4.046 3.467-6.123 3.889-6.123 1.242 0-1.899.438-2.768 3.75-7.44 3.845-5.423 2.175-7.036-1.987-1.92-1.43 1.758-3.336 3.329-4.959 4.087-1.451.677-5.137 3.567-8.193 6.421-7.635 7.133-7.313 6.883-9.27 7.193-1.865.295-2.88 1.667-1.235 1.667.844 0 .8.188-.328 1.388-1.732 1.844-3.333 1.842-3.333-.005 0-2.605 10.384-21.493 16.061-29.212l2.692-3.662 5.485-.346c7.356-.463 10.762-.981 10.762-1.634 0-.312-.776-.396-1.828-.199-2.761.518-12.832 1.418-13.081 1.168-.12-.12.335-1.112 1.01-2.206 2.355-3.809.87-4.306-2.392-.801l-2.886 3.101-5.829.357c-5.95.364-10.518 1.506-11.695 2.924-.852 1.028-.558 1.003 3.246-.271 1.747-.585 5.519-1.245 8.382-1.466l5.205-.401-3.283 4.938c-1.806 2.716-4.138 6.375-5.184 8.132-2.584 4.344-6.849 5.086-4.634.806 4.711-9.107 1.99-9.453-8.29-1.056-9.985 8.156-12.653 10.111-13.803 10.111-2.313 0-.927-4.447 3.029-9.711 1.372-1.827 2.377-3.515 2.231-3.75-.726-1.175-2.559-.167-4.715 2.594-1.298 1.662-2.976 3.176-3.729 3.365-1.539.387-5.338 2.891-8.213 5.416-3.722 3.267-3.096.213.889-4.341 2.485-2.839 2.635-3.177 2.073-4.665-.571-1.514-.443-1.756 2.279-4.312 1.586-1.489 2.884-3.016 2.884-3.392 0-2.537-5.306.145-6.89 3.482-.548 1.156-1.94 2.623-3.281 3.457-1.281.797-5.208 4.254-8.727 7.683-10.668 10.394-13.994 10.449-7.251.12 5.259-8.056 5.526-10.426.959-8.518-2.69 1.124-3.538 2.392 10.322-15.438 1.534-1.973 1.955-2.9 1.516-3.334-.763-.753-1.937.534-11.246 12.333-5.522 6.998-7.804 9.447-10.278 11.025-1.749 1.115-6.064 4.807-9.591 8.202-20.187 19.44-34.471 11.48-22.34-12.449l2.67-5.267 6.652-.356c13.357-.715 27.693-8.736 32.446-18.153 3.397-6.73-1.884-11.181-10.653-8.977m9.681 2.021c7.027 6.359-14.403 22.694-31.35 23.896-5.701.404-5.909.137-2.884-3.709 11.825-15.035 28.84-25.068 34.234-20.187m24.345 25.156c0 .636-2.327 2.334-2.695 1.967-.332-.332 1.597-2.491 2.225-2.491.258 0 .47.236.47.524m11.234.341c-1.276.893-1.686 2.468-.642 2.468 1.27 0 2.741-1.203 2.741-2.242 0-1.317-.469-1.368-2.099-.226m46.667 0c-1.276.893-1.686 2.468-.643 2.468 1.271 0 2.742-1.203 2.742-2.242 0-1.317-.469-1.368-2.099-.226m62.528-.165c-.907.711-2.096 5.353-2.096 8.183 0 1.991.987 2.733 1.331 1.001.138-.7.667-3.106 1.175-5.346.995-4.393.941-4.897-.41-3.838m-95.714 7.419c-1.736 3.549-1.936 3.668-5.775 3.44l-2.872-.17 4.883-3.666c5.449-4.093 5.935-4.041 3.764.396m62.507.654c0 .664-4.932 5.369-5.272 5.029-.483-.483 3.587-5.469 4.464-5.469.444 0 .808.198.808.44m-65.556 3.908c0 .834-2.518 2.842-4.377 3.49-3.59 1.251-4.46-1.985-.92-3.42 1.491-.604 5.297-.655 5.297-.07m27.743 13.618c-1.965.974-2.166 3.881-.35 5.07 2.601 1.705 5.723-.883 4.292-3.558-.927-1.731-2.378-2.288-3.942-1.512m20.427 11.706c-2.533 1.729-2.614 1.74-2.614.328 0-1.018-.371-1.111-4.445-1.111-4.204 0-6.209.834-2.916 1.213l1.527.176v20l-1.537.177c-3.45.396-.546 1.212 4.315 1.212 4.737 0 7.67-.773 4.592-1.21-1.237-.176-1.261-.322-1.412-8.713l-.154-8.534 1.543-1.341c2.344-2.04 4.029-2.284 5.261-.763 1.726 2.132 1.267 19.095-.524 19.35-3.206.455-.712 1.211 3.995 1.211 4.762 0 7.712-.772 4.624-1.21-1.247-.177-1.258-.256-1.258-9.046v-8.867l1.888-1.272c2.184-1.471 2.798-1.549 4.195-.527 1.669 1.22 1.476 19.451-.208 19.711-3.151.485-.512 1.211 4.403 1.211 5.078 0 7.702-.79 4.027-1.213l-1.527-.176-.152-9.498c-.15-9.382-.169-9.515-1.573-10.834-2.118-1.99-7.049-1.912-9.759.155l-1.952 1.489-1.427-1.427c-2.168-2.168-6.137-2.387-8.912-.491m35.441-.288c-7.903 3.647-8.799 15.801-1.537 20.846 4.775 3.318 12.126 1.791 15.041-3.124 1.328-2.238.248-2.653-1.463-.562-5.757 7.033-12.318 4.894-12.318-4.016v-3.639h7.222c8.212 0 8.315-.079 6.172-4.722-2.445-5.299-7.783-7.245-13.117-4.783m27.639.313c-2.244 1.283-2.361 1.297-2.361.271 0-.978-.414-1.079-4.444-1.079-4.204 0-6.21.834-2.917 1.213l1.528.176v20l-1.537.177c-.846.097-1.394.409-1.218.694.432.699 10.654.664 11.088-.038.195-.315-.272-.555-1.078-.555h-1.422V135.04l2.074-1.409c5.232-3.556 6.388-1.769 6.347 9.812l-.032 9.057-1.426.177c-3.405.421-.316 1.212 4.737 1.212 5.051 0 7.658-.792 3.995-1.213l-1.528-.176-.311-9.722c-.172-5.347-.359-9.789-.417-9.869-1.773-2.471-7.58-2.99-11.078-.99m23.206-.113c-11.937 6.098-5.462 25.434 7.384 22.05 2.383-.628 7.049-4.544 7.049-5.916 0-1.154-.914-.833-2.312.81-5.418 6.372-11.483 5.252-12.426-2.295-.672-5.383-.728-5.344 7.553-5.344 8.004 0 7.774.143 6.337-3.93-2.07-5.867-8.017-8.22-13.585-5.375m21.378-.634c-7.187 4.184-5.414 11.125 3.537 13.844 5.427 1.648 7.086 4.139 4.413 6.629-2.852 2.657-8.284.975-10.844-3.357-1.433-2.427-1.829-1.997-1.829 1.99 0 3.59.309 4.191 1.526 2.974.479-.479 1.479-.401 4.031.315 5.44 1.526 9.351.112 10.898-3.94 1.947-5.098.133-7.79-6.705-9.951-6.207-1.961-8.073-4.175-5.444-6.46 2.798-2.431 6.536-1.504 8.96 2.222 1.898 2.918 2.481 2.485 2.186-1.621-.168-2.342-.238-2.424-2.118-2.519-1.07-.053-3.195-.249-4.723-.435-1.715-.209-3.202-.091-3.888.309m-132.5.458c0 .285.687.598 1.527.694l1.528.176v20l-1.528.176c-3.766.433-.998 1.213 4.306 1.213s8.072-.78 4.305-1.213l-1.527-.176-.151-10.694-.151-10.695h-4.155c-2.285 0-4.154.234-4.154.519m66.332.667c1.618.738 1.837 1.199 2.33 4.918l.37 2.785h-9.032v-2.537c0-4.698 2.637-6.849 6.332-5.166m51.748.733c.791.791 1.367 2.017 1.372 2.917.004.854.158 2.116.342 2.803.327 1.22.229 1.25-4.115 1.25-5.001 0-5.244-.195-4.604-3.692.827-4.527 4.185-6.098 7.005-3.278" fill-rule="evenodd"/></svg>