<?xml version="1.0" encoding="UTF-8"?> <svg xmlns="http://www.w3.org/2000/svg" xmlns:xlink="http://www.w3.org/1999/xlink" id="svg" width="400" height="209.44444444444446" viewBox="0, 0, 400,209.44444444444446"> <g id="svgg"> <path id="path0" d="M246.944 52.457 C 237.994 54.204,238.008 54.904,247.083 59.300 C 259.523 65.327,267.781 71.217,268.651 74.682 C 268.917 75.741,268.241 77.509,265.880 81.930 C 262.869 87.568,262.621 88.568,264.603 87.083 C 265.705 86.258,270.556 77.391,270.556 76.202 C 270.556 72.073,263.756 66.436,250.248 59.368 L 242.546 55.339 245.301 54.577 C 257.115 51.312,280.364 58.862,279.565 65.705 C 279.381 67.276,279.616 67.832,280.884 68.829 C 283.913 71.212,285.679 68.775,283.124 65.738 L 281.746 64.101 282.965 61.928 C 284.647 58.928,286.611 57.872,288.698 58.843 L 290.278 59.579 289.028 60.152 C 287.414 60.892,287.452 61.284,289.342 63.400 L 290.907 65.151 288.839 70.973 C 285.823 79.466,282.399 82.538,271.686 86.360 C 269.405 87.174,267.280 88.029,266.964 88.261 C 266.648 88.492,264.608 89.363,262.432 90.195 C 257.959 91.907,253.113 94.692,249.601 97.570 C 245.591 100.856,246.776 101.779,251.037 98.688 C 256.966 94.385,261.470 92.008,268.544 89.449 C 284.752 83.584,286.868 81.810,290.812 70.777 C 293.290 63.844,292.409 64.243,301.602 65.880 C 305.977 66.658,309.702 67.150,309.880 66.972 C 310.573 66.279,308.863 65.571,300.703 63.175 C 293.687 61.116,291.966 60.399,290.648 58.988 C 287.601 55.726,284.325 56.175,281.770 60.205 L 280.216 62.655 276.913 60.181 C 267.916 53.440,256.709 50.552,246.944 52.457 M282.778 67.614 C 282.778 68.927,281.407 68.091,281.197 66.650 C 281.029 65.498,281.117 65.424,281.891 66.067 C 282.379 66.472,282.778 67.168,282.778 67.614 M106.530 67.236 C 98.461 69.265,85.772 79.121,79.167 88.490 C 77.944 90.224,76.623 91.648,76.230 91.655 C 75.030 91.675,72.678 89.863,71.591 88.079 C 70.592 86.441,70.560 86.431,70.558 87.740 C 70.556 88.630,71.377 89.831,72.964 91.263 L 75.373 93.437 73.494 96.975 C 68.796 105.822,67.624 112.815,69.957 118.087 C 74.307 127.922,84.633 126.638,97.209 114.700 C 106.044 106.312,109.810 103.497,107.522 106.989 C 105.150 110.608,107.886 110.579,110.487 106.957 C 112.328 104.393,116.507 100.767,117.025 101.284 C 117.194 101.453,116.214 103.171,114.847 105.101 C 109.547 112.587,108.958 116.667,113.179 116.667 C 115.661 116.667,118.718 114.437,125.000 108.047 C 130.753 102.195,134.006 99.784,134.918 100.696 C 135.953 101.731,135.656 102.426,133.617 103.747 C 131.270 105.267,129.318 108.887,129.551 111.286 C 129.816 114.014,131.251 113.797,135.439 110.394 C 137.489 108.727,139.997 106.941,141.011 106.425 L 142.856 105.486 142.476 108.022 C 141.558 114.143,147.535 114.814,152.261 109.120 C 152.870 108.386,153.059 108.500,153.677 109.970 C 155.023 113.171,163.337 111.309,164.808 107.478 C 165.007 106.958,165.899 106.667,167.288 106.667 L 169.457 106.667 167.295 110.972 C 163.298 118.932,162.676 122.645,165.118 123.952 C 166.414 124.645,168.834 123.817,170.324 122.171 C 172.003 120.316,172.222 120.965,172.222 127.778 L 172.222 134.444 164.427 134.444 L 156.632 134.444 156.788 127.639 L 156.944 120.833 158.784 120.657 C 163.537 120.200,159.949 119.167,153.611 119.167 C 147.115 119.167,143.602 120.238,148.716 120.659 L 150.833 120.833 151.021 135.185 C 151.239 151.893,151.213 152.088,148.748 152.326 C 144.388 152.747,147.660 153.611,153.611 153.611 C 159.563 153.611,162.834 152.746,158.472 152.326 L 156.667 152.152 156.667 144.131 L 156.667 136.111 164.444 136.111 L 172.222 136.111 172.222 144.167 L 172.222 152.222 170.231 152.222 C 168.886 152.222,168.316 152.447,168.472 152.917 C 168.640 153.420,170.512 153.611,175.278 153.611 C 180.043 153.611,181.916 153.420,182.083 152.917 C 182.240 152.447,181.668 152.222,180.315 152.222 L 178.316 152.222 178.464 136.528 L 178.611 120.833 180.417 120.659 C 184.209 120.294,182.520 118.889,178.287 118.889 C 175.987 118.889,174.429 118.665,174.537 118.350 C 174.830 117.496,185.826 107.606,187.694 106.515 L 189.381 105.530 189.274 108.511 C 189.036 115.107,192.125 115.138,199.722 108.616 C 204.249 104.730,204.746 104.473,203.657 106.578 C 201.437 110.871,203.627 111.225,206.323 107.010 C 208.099 104.233,211.931 100.634,212.502 101.206 C 212.639 101.343,211.506 103.185,209.984 105.300 C 201.612 116.929,207.013 121.504,216.922 111.175 C 218.843 109.172,219.344 108.924,220.886 109.213 C 221.916 109.406,222.806 109.292,223.025 108.939 C 223.716 107.821,224.469 108.320,224.130 109.670 C 223.011 114.129,226.104 114.241,232.089 109.960 C 234.683 108.104,237.375 106.370,238.071 106.105 C 239.552 105.542,240.392 104.444,239.338 104.447 C 238.386 104.449,235.586 106.158,231.043 109.509 C 227.397 112.198,226.111 112.756,226.111 111.649 C 226.111 110.308,227.986 106.767,229.926 104.446 C 233.316 100.388,233.711 98.341,230.725 100.298 C 229.958 100.800,228.830 101.080,228.217 100.920 C 226.139 100.376,224.297 101.687,218.276 107.992 C 207.498 119.279,204.459 118.535,212.337 106.538 C 217.527 98.633,215.871 96.597,208.823 102.220 C 207.596 103.199,206.402 103.716,205.755 103.547 C 204.635 103.254,203.029 104.339,197.234 109.306 C 193.188 112.773,191.111 113.195,191.111 110.548 C 191.111 108.649,191.549 107.780,194.861 103.108 C 198.706 97.685,197.036 96.072,192.874 101.188 C 191.444 102.946,189.538 104.517,187.915 105.275 C 186.464 105.952,182.778 108.842,179.722 111.696 C 172.087 118.829,172.409 118.579,170.452 118.889 C 168.587 119.184,167.572 120.556,169.217 120.556 C 170.061 120.556,170.017 120.744,168.889 121.944 C 167.157 123.788,165.556 123.786,165.556 121.939 C 165.556 119.334,175.940 100.446,181.617 92.727 L 184.309 89.065 189.794 88.719 C 197.150 88.256,200.556 87.738,200.556 87.085 C 200.556 86.773,199.780 86.689,198.728 86.886 C 195.967 87.404,185.896 88.304,185.647 88.054 C 185.527 87.934,185.982 86.942,186.657 85.848 C 189.012 82.039,187.527 81.542,184.265 85.047 L 181.379 88.148 175.550 88.505 C 169.600 88.869,165.032 90.011,163.855 91.429 C 163.003 92.457,163.297 92.432,167.101 91.158 C 168.848 90.573,172.620 89.913,175.483 89.692 L 180.688 89.291 177.405 94.229 C 175.599 96.945,173.267 100.604,172.221 102.361 C 169.637 106.705,165.372 107.447,167.587 103.167 C 172.298 94.060,169.577 93.714,159.297 102.111 C 149.312 110.267,146.644 112.222,145.494 112.222 C 143.181 112.222,144.567 107.775,148.523 102.511 C 149.895 100.684,150.900 98.996,150.754 98.761 C 150.028 97.586,148.195 98.594,146.039 101.355 C 144.741 103.017,143.063 104.531,142.310 104.720 C 140.771 105.107,136.972 107.611,134.097 110.136 C 130.375 113.403,131.001 110.349,134.986 105.795 C 137.471 102.956,137.621 102.618,137.059 101.130 C 136.488 99.616,136.616 99.374,139.338 96.818 C 140.924 95.329,142.222 93.802,142.222 93.426 C 142.222 90.889,136.916 93.571,135.332 96.908 C 134.784 98.064,133.392 99.531,132.051 100.365 C 130.770 101.162,126.843 104.619,123.324 108.048 C 112.656 118.442,109.330 118.497,116.073 108.168 C 121.332 100.112,121.599 97.742,117.032 99.650 C 114.342 100.774,113.494 102.042,127.354 84.212 C 128.888 82.239,129.309 81.312,128.870 80.878 C 128.107 80.125,126.933 81.412,117.624 93.211 C 112.102 100.209,109.820 102.658,107.346 104.236 C 105.597 105.351,101.282 109.043,97.755 112.438 C 77.568 131.878,63.284 123.918,75.415 99.989 L 78.085 94.722 84.737 94.366 C 98.094 93.651,112.430 85.630,117.183 76.213 C 120.580 69.483,115.299 65.032,106.530 67.236 M116.211 69.257 C 123.238 75.616,101.808 91.951,84.861 93.153 C 79.160 93.557,78.952 93.290,81.977 89.444 C 93.802 74.409,110.817 64.376,116.211 69.257 M140.556 94.413 C 140.556 95.049,138.229 96.747,137.861 96.380 C 137.529 96.048,139.458 93.889,140.086 93.889 C 140.344 93.889,140.556 94.125,140.556 94.413 M151.790 94.754 C 150.514 95.647,150.104 97.222,151.148 97.222 C 152.418 97.222,153.889 96.019,153.889 94.980 C 153.889 93.663,153.420 93.612,151.790 94.754 M198.457 94.754 C 197.181 95.647,196.771 97.222,197.814 97.222 C 199.085 97.222,200.556 96.019,200.556 94.980 C 200.556 93.663,200.087 93.612,198.457 94.754 M260.985 94.589 C 260.078 95.300,258.889 99.942,258.889 102.772 C 258.889 104.763,259.876 105.505,260.220 103.773 C 260.358 103.073,260.887 100.667,261.395 98.427 C 262.390 94.034,262.336 93.530,260.985 94.589 M165.271 102.008 C 163.535 105.557,163.335 105.676,159.496 105.448 L 156.624 105.278 161.507 101.612 C 166.956 97.519,167.442 97.571,165.271 102.008 M227.778 102.662 C 227.778 103.326,222.846 108.031,222.506 107.691 C 222.023 107.208,226.093 102.222,226.970 102.222 C 227.414 102.222,227.778 102.420,227.778 102.662 M162.222 106.570 C 162.222 107.404,159.704 109.412,157.845 110.060 C 154.255 111.311,153.385 108.075,156.925 106.640 C 158.416 106.036,162.222 105.985,162.222 106.570 M189.965 120.188 C 188.000 121.162,187.799 124.069,189.615 125.258 C 192.216 126.963,195.338 124.375,193.907 121.700 C 192.980 119.969,191.529 119.412,189.965 120.188 M210.392 131.894 C 207.859 133.623,207.778 133.634,207.778 132.222 C 207.778 131.204,207.407 131.111,203.333 131.111 C 199.129 131.111,197.124 131.945,200.417 132.324 L 201.944 132.500 201.944 142.500 L 201.944 152.500 200.407 152.677 C 196.957 153.073,199.861 153.889,204.722 153.889 C 209.459 153.889,212.392 153.116,209.314 152.679 C 208.077 152.503,208.053 152.357,207.902 143.966 L 207.748 135.432 209.291 134.091 C 211.635 132.051,213.320 131.807,214.552 133.328 C 216.278 135.460,215.819 152.423,214.028 152.678 C 210.822 153.133,213.316 153.889,218.023 153.889 C 222.785 153.889,225.735 153.117,222.647 152.679 C 221.400 152.502,221.389 152.423,221.389 143.633 L 221.389 134.766 223.277 133.494 C 225.461 132.023,226.075 131.945,227.472 132.967 C 229.141 134.187,228.948 152.418,227.264 152.678 C 224.113 153.163,226.752 153.889,231.667 153.889 C 236.745 153.889,239.369 153.099,235.694 152.676 L 234.167 152.500 234.015 143.002 C 233.865 133.620,233.846 133.487,232.442 132.168 C 230.324 130.178,225.393 130.256,222.683 132.323 L 220.731 133.812 219.304 132.385 C 217.136 130.217,213.167 129.998,210.392 131.894 M245.833 131.606 C 237.930 135.253,237.034 147.407,244.296 152.452 C 249.071 155.770,256.422 154.243,259.337 149.328 C 260.665 147.090,259.585 146.675,257.874 148.766 C 252.117 155.799,245.556 153.660,245.556 144.750 L 245.556 141.111 252.778 141.111 C 260.990 141.111,261.093 141.032,258.950 136.389 C 256.505 131.090,251.167 129.144,245.833 131.606 M273.472 131.919 C 271.228 133.202,271.111 133.216,271.111 132.190 C 271.111 131.212,270.697 131.111,266.667 131.111 C 262.463 131.111,260.457 131.945,263.750 132.324 L 265.278 132.500 265.278 142.500 L 265.278 152.500 263.741 152.677 C 262.895 152.774,262.347 153.086,262.523 153.371 C 262.955 154.070,273.177 154.035,273.611 153.333 C 273.806 153.018,273.339 152.778,272.533 152.778 L 271.111 152.778 271.111 143.909 L 271.111 135.040 273.185 133.631 C 278.417 130.075,279.573 131.862,279.532 143.443 L 279.500 152.500 278.074 152.677 C 274.669 153.098,277.758 153.889,282.811 153.889 C 287.862 153.889,290.469 153.097,286.806 152.676 L 285.278 152.500 284.967 142.778 C 284.795 137.431,284.608 132.989,284.550 132.909 C 282.777 130.438,276.970 129.919,273.472 131.919 M296.678 131.806 C 284.741 137.904,291.216 157.240,304.062 153.856 C 306.445 153.228,311.111 149.312,311.111 147.940 C 311.111 146.786,310.197 147.107,308.799 148.750 C 303.381 155.122,297.316 154.002,296.373 146.455 C 295.701 141.072,295.645 141.111,303.926 141.111 C 311.930 141.111,311.700 141.254,310.263 137.181 C 308.193 131.314,302.246 128.961,296.678 131.806 M318.056 131.172 C 310.869 135.356,312.642 142.297,321.593 145.016 C 327.020 146.664,328.679 149.155,326.006 151.645 C 323.154 154.302,317.722 152.620,315.162 148.288 C 313.729 145.861,313.333 146.291,313.333 150.278 C 313.333 153.868,313.642 154.469,314.859 153.252 C 315.338 152.773,316.338 152.851,318.890 153.567 C 324.330 155.093,328.241 153.679,329.788 149.627 C 331.735 144.529,329.921 141.837,323.083 139.676 C 316.876 137.715,315.010 135.501,317.639 133.216 C 320.437 130.785,324.175 131.712,326.599 135.438 C 328.497 138.356,329.080 137.923,328.785 133.817 C 328.617 131.475,328.547 131.393,326.667 131.298 C 325.597 131.245,323.472 131.049,321.944 130.863 C 320.229 130.654,318.742 130.772,318.056 131.172 M185.556 131.630 C 185.556 131.915,186.243 132.228,187.083 132.324 L 188.611 132.500 188.611 142.500 L 188.611 152.500 187.083 152.676 C 183.317 153.109,186.085 153.889,191.389 153.889 C 196.693 153.889,199.461 153.109,195.694 152.676 L 194.167 152.500 194.016 141.806 L 193.865 131.111 189.710 131.111 C 187.425 131.111,185.556 131.345,185.556 131.630 M251.888 132.297 C 253.506 133.035,253.725 133.496,254.218 137.215 L 254.588 140.000 250.072 140.000 L 245.556 140.000 245.556 137.463 C 245.556 132.765,248.193 130.614,251.888 132.297 M303.636 133.030 C 304.427 133.821,305.003 135.047,305.008 135.947 C 305.012 136.801,305.166 138.063,305.350 138.750 C 305.677 139.970,305.579 140.000,301.235 140.000 C 296.234 140.000,295.991 139.805,296.631 136.308 C 297.458 131.781,300.816 130.210,303.636 133.030 " stroke="none" fill="#000000" fill-rule="evenodd"></path> </g> </svg> 